<svg width="1440" height="860" viewBox="0 0 1440 860" fill="none" xmlns="http://www.w3.org/2000/svg">
  <g clip-path="url(#clip0_1_20)">
  <path d="M-75.2276 1029.09L1615.17 840.453L1515.23 -169.088L-175.166 19.547L-75.2276 1029.09Z" fill="#DFDCEF"/>
  <path d="M1601.17 699.06L1561.04 704.7C1520.9 710.34 1440.63 721.621 1360.17 730.96C1279.71 740.299 1199.06 747.695 1118.55 756.5C1038.04 765.304 957.664 775.516 878.688 799.837C799.711 824.159 722.132 862.592 641.883 874.061C561.635 885.531 478.717 870.038 398.964 886.523C319.212 903.006 242.625 951.466 162.352 962.687C82.0782 973.909 -1.88086 947.892 -43.8614 934.883L-85.841 921.874L-175.166 19.5471L-134.918 15.0558C-94.6702 10.5644 -14.1758 1.58188 66.3195 -7.40077C146.814 -16.3833 227.309 -25.366 307.804 -34.3485C388.299 -43.3311 468.794 -52.3138 549.289 -61.2963C629.784 -70.279 710.278 -79.2615 790.774 -88.2442C871.268 -97.2267 951.763 -106.209 1032.26 -115.192C1112.75 -124.175 1193.25 -133.157 1273.74 -142.14C1354.24 -151.122 1434.73 -160.105 1474.98 -164.596L1515.23 -169.088L1601.17 699.06Z" fill="#E3E0F1"/>
  <path d="M1595.49 641.712L1555.98 653.679C1516.48 665.645 1437.46 689.578 1356.2 690.844C1274.94 692.109 1191.44 670.707 1110.4 674.211C1029.37 677.714 950.794 706.125 871.263 724.831C791.73 743.538 711.238 752.541 629.347 747.428C547.457 742.315 464.169 723.087 382.174 716.919C300.18 710.75 219.477 717.642 140.691 743.875C61.9033 770.11 -14.9683 815.688 -53.4051 838.476L-91.841 861.266L-175.166 19.5473L-134.918 15.0561C-94.6703 10.5647 -14.1759 1.58216 66.3194 -7.40049C146.814 -16.383 227.309 -25.3657 307.804 -34.3482C388.299 -43.3309 468.794 -52.3135 549.289 -61.2961C629.784 -70.2787 710.278 -79.2612 790.774 -88.2439C871.268 -97.2264 951.763 -106.209 1032.26 -115.192C1112.75 -124.174 1193.25 -133.157 1273.74 -142.139C1354.24 -151.122 1434.73 -160.105 1474.98 -164.596L1515.23 -169.087L1595.49 641.712Z" fill="#E7E5F3"/>
  <path d="M1582.36 509.099L1541.04 502.699C1499.71 496.3 1417.06 483.5 1335.04 477.073C1253.02 470.647 1171.63 470.593 1091.73 485.519C1011.82 500.445 933.394 530.35 855.007 560.621C776.619 590.892 698.268 621.528 618.953 642.431C539.639 663.336 459.36 674.508 377.559 670.295C295.758 666.082 212.434 646.485 131.05 646.484C49.6653 646.483 -29.7784 666.079 -69.5012 675.877L-109.223 685.675L-175.166 19.5466L-134.918 15.0554C-94.6702 10.564 -14.1758 1.58144 66.3195 -7.40121C146.814 -16.3838 227.309 -25.3664 307.804 -34.3489C388.299 -43.3316 468.794 -52.3142 549.289 -61.2968C629.784 -70.2794 710.278 -79.262 790.774 -88.2446C871.268 -97.2271 951.763 -106.21 1032.26 -115.192C1112.75 -124.175 1193.25 -133.158 1273.74 -142.14C1354.24 -151.123 1434.73 -160.105 1474.98 -164.597L1515.23 -169.088L1582.36 509.099Z" fill="#EBE9F5"/>
  <path d="M1570.29 387.168L1529.79 389.063C1489.28 390.957 1408.28 394.745 1327.42 400.044C1246.56 405.343 1165.85 412.151 1084.09 408.385C1002.33 404.618 919.527 390.277 837.461 383.376C755.393 376.474 674.063 377.014 593.066 380.931C512.07 384.849 431.408 392.146 351.878 410.881C272.349 429.617 193.952 459.791 115.127 485.633C36.3002 511.476 -42.9538 532.988 -82.5817 543.745L-122.209 554.5L-175.166 19.547L-134.919 15.0557C-94.6704 10.5643 -14.176 1.58178 66.3193 -7.40087C146.814 -16.3834 227.309 -25.3661 307.803 -34.3486C388.299 -43.3312 468.794 -52.3139 549.288 -61.2964C629.784 -70.2791 710.278 -79.2616 790.773 -88.2443C871.268 -97.2268 951.763 -106.209 1032.26 -115.192C1112.75 -124.175 1193.25 -133.157 1273.74 -142.14C1354.24 -151.122 1434.73 -160.105 1474.98 -164.596L1515.23 -169.088L1570.29 387.168Z" fill="#EFEEF7"/>
  <path d="M1556.68 249.67L1514.61 235.689C1472.53 221.708 1388.38 193.746 1305.78 181.487C1223.18 169.228 1142.14 172.674 1061.35 178.691C980.562 184.708 900.028 193.298 820.347 210.5C740.665 227.701 661.837 253.514 582.382 273.007C502.928 292.5 422.848 305.672 343.2 323.214C263.553 340.756 184.337 362.668 102.832 361.438C21.3258 360.208 -62.4706 335.835 -104.37 323.648L-146.268 311.461L-175.166 19.5473L-134.918 15.056C-94.6703 10.5646 -14.1759 1.58209 66.3195 -7.40056C146.814 -16.3831 227.309 -25.3658 307.804 -34.3483C388.299 -43.3309 468.794 -52.3136 549.289 -61.2961C629.784 -70.2788 710.278 -79.2613 790.774 -88.244C871.268 -97.2265 951.763 -106.209 1032.26 -115.192C1112.75 -124.174 1193.25 -133.157 1273.74 -142.14C1354.24 -151.122 1434.73 -160.105 1474.98 -164.596L1515.23 -169.087L1556.68 249.67Z" fill="#F3F2F9"/>
  <path d="M1531.49 -4.78629L1491.13 -1.48871C1450.76 1.80803 1370.03 8.40227 1289.81 20.1555C1209.59 31.9096 1129.88 48.8219 1051.34 77.5867C972.805 106.352 895.442 146.969 814.572 152.163C733.702 157.357 649.326 127.129 567.949 127.203C486.572 127.276 408.195 157.653 329.501 184.828C250.807 212.002 171.796 235.974 91.3318 245.266C10.867 254.557 -71.0501 249.168 -112.01 246.474L-152.968 243.779L-175.166 19.5475L-134.918 15.0562C-94.6702 10.5648 -14.1759 1.58229 66.3195 -7.40036C146.814 -16.3829 227.309 -25.3655 307.804 -34.3481C388.299 -43.3307 468.794 -52.3134 549.289 -61.2959C629.784 -70.2786 710.278 -79.2611 790.774 -88.2437C871.268 -97.2263 951.763 -106.209 1032.26 -115.192C1112.75 -124.174 1193.25 -133.157 1273.74 -142.139C1354.24 -151.122 1434.73 -160.104 1474.98 -164.596L1515.23 -169.087L1531.49 -4.78629Z" fill="#F7F6FB"/>
  <path d="M1515.52 -166.125L1476.39 -150.332C1437.26 -134.539 1359.01 -102.955 1279.83 -80.6533C1200.65 -58.3523 1120.56 -45.3343 1041.12 -25.6273C961.691 -5.92015 882.92 20.4752 803.308 38.3707C723.695 56.2662 643.241 65.6619 561.97 66.8038C480.699 67.9465 398.611 60.8364 315.956 48.0073C233.303 35.1791 150.082 16.6331 68.664 16.2821C-12.7554 15.9302 -92.3727 33.7724 -132.182 42.6936L-171.991 51.6147L-175.166 19.5468L-134.918 15.0556C-94.6702 10.5642 -14.1758 1.58165 66.3195 -7.401C146.814 -16.3835 227.309 -25.3662 307.804 -34.3487C388.299 -43.3314 468.794 -52.314 549.289 -61.2966C629.784 -70.2792 710.278 -79.2617 790.774 -88.2444C871.268 -97.2269 951.763 -106.21 1032.26 -115.192C1112.75 -124.175 1193.25 -133.157 1273.74 -142.14C1354.24 -151.123 1434.73 -160.105 1474.98 -164.597L1515.23 -169.088L1515.52 -166.125Z" fill="#FBFBFD"/>
  </g>
  <defs>
  <clipPath id="clip0_1_20">
  <rect width="1440" height="860" fill="white"/>
  </clipPath>
  </defs>
</svg>
    